<svg width="921" height="510" viewBox="0 0 921 510" fill="none" xmlns="http://www.w3.org/2000/svg">
<path d="M208.536 491C182.479 491 157.995 486.214 135.073 476.646C112.234 467.073 92.1718 454.005 74.8802 437.443C57.5885 420.792 44 401.375 34.1094 379.177C24.2187 356.901 19.2708 333.219 19.2708 308.125C19.2708 282.797 24.2187 259.115 34.1094 237.078C44 214.964 57.5885 195.583 74.8802 178.937C92.1718 162.286 112.234 149.219 135.073 139.729C157.995 130.161 182.479 125.375 208.536 125.375C234.51 125.375 258.958 130.161 281.88 139.729C304.797 149.219 324.901 162.286 342.193 178.937C359.484 195.583 372.953 214.964 382.604 237.078C392.333 259.115 397.198 282.797 397.198 308.125C397.198 333.219 392.333 356.901 382.604 379.177C372.953 401.375 359.484 420.792 342.193 437.443C324.901 454.005 304.797 467.073 281.88 476.646C258.958 486.214 234.51 491 208.536 491ZM159.078 308.125C159.078 321.635 163.865 333.177 173.432 342.75C183.005 352.318 194.542 357.104 208.052 357.104C221.562 357.104 233.146 352.318 242.797 342.75C252.526 333.177 257.391 321.635 257.391 308.125C257.391 294.62 252.526 283.036 242.797 273.385C233.146 263.656 221.562 258.792 208.052 258.792C194.542 258.792 183.005 263.656 173.432 273.385C163.865 283.036 159.078 294.62 159.078 308.125ZM779.641 481.109H625.479L536.578 344.797V481.109H408.109V135.266H536.578V266.63L614.141 135.266H767.823L659.62 308.125L779.641 481.109Z" fill="#FC820E" stroke="#030303" stroke-opacity="0.8" stroke-width="37.0571"/>
<path d="M208.492 490.983C182.476 490.983 158.018 486.212 135.117 476.671C112.226 467.118 92.1376 454.02 74.8459 437.379C57.5542 420.743 43.9605 401.311 34.0751 379.087C24.2001 356.853 19.2626 333.212 19.2626 308.171C19.2626 282.811 24.2001 259.098 34.0751 237.025C43.9605 214.957 57.5542 195.608 74.8459 178.983C92.1376 162.348 112.226 149.249 135.117 139.691C158.018 130.139 182.476 125.358 208.492 125.358C234.518 125.358 258.976 130.139 281.867 139.691C304.752 149.249 324.846 162.348 342.138 178.983C359.44 195.608 372.95 214.957 382.658 237.025C392.377 259.098 397.242 282.811 397.242 308.171C397.242 333.212 392.377 356.853 382.658 379.087C372.95 401.311 359.44 420.743 342.138 437.379C324.846 454.02 304.752 467.118 281.867 476.671C258.976 486.212 234.518 490.983 208.492 490.983ZM159.096 308.171C159.096 321.686 163.867 333.223 173.408 342.775C182.96 352.316 194.497 357.087 208.013 357.087C221.513 357.087 233.117 352.316 242.825 342.775C252.544 333.223 257.408 321.686 257.408 308.171C257.408 294.671 252.544 283.066 242.825 273.358C233.117 263.639 221.513 258.775 208.013 258.775C194.497 258.775 182.96 263.639 173.408 273.358C163.867 283.066 159.096 294.671 159.096 308.171Z" fill="#FC820E"/>
<path d="M75.3082 436.899L74.8513 437.373L75.3081 436.898C58.0794 420.324 44.5352 400.963 34.6844 378.817C24.8483 356.67 19.9292 333.122 19.9292 308.171C19.9292 282.9 24.8487 259.28 34.6835 237.297C44.5342 215.307 58.0784 196.029 75.308 179.464L75.3081 179.463C92.5383 162.887 112.557 149.833 135.374 140.307C158.189 130.79 182.56 126.025 208.492 126.025C234.434 126.025 258.805 130.79 281.61 140.307C304.422 149.833 324.445 162.887 341.675 179.463L341.676 179.464C358.915 196.028 372.375 215.305 382.048 237.293L382.658 237.025L382.048 237.293C391.728 259.277 396.575 282.899 396.575 308.171C396.575 333.123 391.728 356.673 382.048 378.82L382.658 379.087L382.047 378.82C372.374 400.965 358.914 420.324 341.676 436.898L341.675 436.899C324.445 453.48 304.422 466.534 281.61 476.055C258.805 485.561 234.434 490.316 208.492 490.316C182.56 490.316 158.189 485.561 135.373 476.055C112.556 466.534 92.5383 453.48 75.3082 436.899ZM172.937 343.246L172.937 343.246C182.615 352.913 194.321 357.754 208.013 357.754C221.689 357.754 233.461 352.913 243.292 343.25C253.137 333.574 258.075 321.867 258.075 308.171C258.075 294.49 253.138 282.717 243.296 272.887C233.466 263.045 221.693 258.108 208.013 258.108C194.316 258.108 182.609 263.046 172.933 272.891C163.27 282.723 158.429 294.494 158.429 308.171C158.429 321.863 163.27 333.569 172.937 343.246Z" stroke="#030303" stroke-opacity="0.8" stroke-width="1.33333"/>
<path d="M779.66 481.108H625.514L536.577 344.733V481.108H408.118V135.254H536.577V266.67L614.139 135.254H767.806L659.597 308.17L779.66 481.108Z" fill="#FC820E"/>
<path d="M535.91 344.733V480.441H408.785V135.92H535.91V266.67V269.112L537.151 267.009L614.52 135.92H766.602L659.032 307.817L658.799 308.189L659.05 308.551L778.385 480.441H625.875L537.135 344.369L535.91 342.49V344.733Z" stroke="#030303" stroke-opacity="0.8" stroke-width="1.33333"/>
<mask id="mask0_11_2" style="mask-type:luminance" maskUnits="userSpaceOnUse" x="827" y="30" width="80" height="73">
<path d="M827.667 30.6666H906.333V102.667H827.667V30.6666Z" fill="white"/>
<path d="M828.333 31.3333H905.667V102H828.333V31.3333Z" stroke="white" stroke-width="1.33333"/>
</mask>
<g mask="url(#mask0_11_2)">
<mask id="mask1_11_2" style="mask-type:luminance" maskUnits="userSpaceOnUse" x="821" y="23" width="93" height="87">
<path d="M821.198 84.7864L891.297 23.5729L913.094 48.5312L842.995 109.745L821.198 84.7864Z" fill="white"/>
<path d="M822.139 84.85L891.233 24.5135L912.153 48.4676L843.058 108.804L822.139 84.85Z" stroke="white" stroke-width="1.33333"/>
</mask>
<g mask="url(#mask1_11_2)">
<mask id="mask2_11_2" style="mask-type:luminance" maskUnits="userSpaceOnUse" x="828" y="31" width="78" height="72">
<path d="M875.859 37.052C884.375 29.6145 896.161 29.1718 902.177 36.0676C908.198 42.9583 906.172 54.5728 897.656 62.0103L858.417 96.276C849.901 103.713 838.115 104.156 832.099 97.2656C826.078 90.3697 828.104 78.7551 836.625 71.3176L875.859 37.052Z" fill="white"/>
<path d="M901.675 36.5059L901.675 36.5063C907.371 43.0254 905.561 54.2215 897.218 61.5082L857.978 95.7738L857.978 95.7739C849.635 103.06 838.292 103.346 832.601 96.8271L832.099 97.2656L832.601 96.8271C826.905 90.3027 828.716 79.1064 837.063 71.8199L837.064 71.8198L876.298 37.5541L875.907 37.1069L876.298 37.5541C884.641 30.2675 895.983 29.9819 901.675 36.5059Z" stroke="white" stroke-width="1.33333"/>
</mask>
<g mask="url(#mask2_11_2)">
<path d="M821.198 84.7864L891.297 23.5729L913.094 48.5312L842.995 109.745L821.198 84.7864Z" fill="#2D2C2C" fill-opacity="0.8"/>
<path d="M822.139 84.85L891.233 24.5135L912.153 48.4676L843.058 108.804L822.139 84.85Z" stroke="#030303" stroke-opacity="0.8" stroke-width="1.33333"/>
</g>
</g>
</g>
<mask id="mask3_11_2" style="mask-type:luminance" maskUnits="userSpaceOnUse" x="833" y="36" width="68" height="62">
<path d="M833 36H901V97.3333H833V36Z" fill="white"/>
<path d="M833.667 36.6667H900.333V96.6667H833.667V36.6667Z" stroke="white" stroke-width="1.33333"/>
</mask>
<g mask="url(#mask3_11_2)">
<mask id="mask4_11_2" style="mask-type:luminance" maskUnits="userSpaceOnUse" x="828" y="30" width="78" height="73">
<path d="M828.089 85.224L890.396 30.8177L905.786 48.4427L843.479 102.849L828.089 85.224Z" fill="white"/>
<path d="M829.029 85.2877L890.332 31.7584L904.846 48.3791L843.543 101.908L829.029 85.2877Z" stroke="white" stroke-width="1.33333"/>
</mask>
<g mask="url(#mask4_11_2)">
<mask id="mask5_11_2" style="mask-type:luminance" maskUnits="userSpaceOnUse" x="833" y="36" width="68" height="62">
<path d="M878.302 41.3803C884.958 35.5678 893.802 34.797 898.052 39.6668C902.302 44.5313 900.349 53.1928 893.693 59.0053L855.536 92.323C848.875 98.1355 840.036 98.9063 835.786 94.0366C831.536 89.172 833.49 80.5105 840.146 74.698L878.302 41.3803Z" fill="white"/>
<path d="M897.55 40.1051L897.55 40.1054C899.501 42.3385 900.067 45.4852 899.312 48.8339C898.557 52.182 896.487 55.6801 893.254 58.5031L855.098 91.8207C855.098 91.8207 855.098 91.8208 855.098 91.8208C851.862 94.6441 848.118 96.2244 844.699 96.5215C841.281 96.8186 838.24 95.8339 836.289 93.5982L836.289 93.5979C834.338 91.3649 833.772 88.2181 834.527 84.8694C835.281 81.5213 837.351 78.0233 840.584 75.2002L878.741 41.8825L878.302 41.3803L878.741 41.8825C881.974 39.0593 885.718 37.4789 889.137 37.1818C892.557 36.8847 895.599 37.8695 897.55 40.1051Z" stroke="white" stroke-width="1.33333"/>
</mask>
<g mask="url(#mask5_11_2)">
<path d="M828.089 85.2241L890.328 30.8804L905.719 48.5054L843.479 102.849L828.089 85.2241Z" fill="#161616" fill-opacity="0.8"/>
<path d="M829.029 85.2878L890.264 31.821L904.778 48.4417L843.543 101.908L829.029 85.2878Z" stroke="#030303" stroke-opacity="0.8" stroke-width="1.33333"/>
</g>
</g>
</g>
<mask id="mask6_11_2" style="mask-type:luminance" maskUnits="userSpaceOnUse" x="827" y="129" width="94" height="46">
<path d="M827.667 129.333H921V174.667H827.667V129.333Z" fill="white"/>
<path d="M828.333 130H920.333V174H828.333V130Z" stroke="white" stroke-width="1.33333"/>
</mask>
<g mask="url(#mask6_11_2)">
<mask id="mask7_11_2" style="mask-type:luminance" maskUnits="userSpaceOnUse" x="825" y="126" width="99" height="52">
<path d="M832.49 126.13L923.693 144.635L917.104 177.109L825.901 158.604L832.49 126.13Z" fill="white"/>
<path d="M826.687 158.083L833.01 126.916L922.907 145.156L916.583 176.323L826.687 158.083Z" stroke="white" stroke-width="1.33333"/>
</mask>
<g mask="url(#mask7_11_2)">
<mask id="mask8_11_2" style="mask-type:luminance" maskUnits="userSpaceOnUse" x="828" y="129" width="93" height="45">
<path d="M903.609 140.557C914.688 142.807 922.198 151.901 920.38 160.87C918.563 169.833 908.104 175.281 897.021 173.031L845.969 162.677C834.885 160.427 827.375 151.333 829.198 142.37C831.016 133.401 841.474 127.953 852.557 130.203L903.609 140.557Z" fill="white"/>
<path d="M897.153 172.378L897.153 172.378L846.101 162.024C846.101 162.024 846.101 162.024 846.101 162.024C835.243 159.819 828.127 150.983 829.851 142.503L829.851 142.502C831.571 134.017 841.566 128.652 852.425 130.857L852.425 130.857L903.477 141.211C914.33 143.415 921.447 152.252 919.727 160.737C918.007 169.218 908.012 174.582 897.153 172.378Z" stroke="white" stroke-width="1.33333"/>
</mask>
<g mask="url(#mask8_11_2)">
<path d="M832.49 126.13L923.693 144.635L917.104 177.109L825.901 158.604L832.49 126.13Z" fill="#2D2C2C" fill-opacity="0.8"/>
<path d="M826.687 158.083L833.01 126.916L922.907 145.156L916.583 176.323L826.687 158.083Z" stroke="#030303" stroke-opacity="0.8" stroke-width="1.33333"/>
</g>
</g>
</g>
<mask id="mask9_11_2" style="mask-type:luminance" maskUnits="userSpaceOnUse" x="833" y="133" width="83" height="37">
<path d="M833 133.333H915.667V169.333H833V133.333Z" fill="white"/>
<path d="M833.667 134H915V168.667H833.667V134Z" stroke="white" stroke-width="1.33333"/>
</mask>
<g mask="url(#mask9_11_2)">
<mask id="mask10_11_2" style="mask-type:luminance" maskUnits="userSpaceOnUse" x="831" y="131" width="87" height="41">
<path d="M836.693 131.771L917.688 148.563L912.932 171.474L831.943 154.682L836.693 131.771Z" fill="white"/>
<path d="M832.731 154.165L837.21 132.559L916.899 149.08L912.415 170.686L832.731 154.165Z" stroke="white" stroke-width="1.33333"/>
</mask>
<g mask="url(#mask10_11_2)">
<mask id="mask11_11_2" style="mask-type:luminance" maskUnits="userSpaceOnUse" x="834" y="134" width="82" height="35">
<path d="M901.964 145.307C910.62 147.099 916.568 153.682 915.26 160.011C913.948 166.339 905.865 170.011 897.214 168.219L847.609 157.932C838.958 156.135 833.005 149.552 834.318 143.229C835.625 136.901 843.708 133.224 852.359 135.021L901.964 145.307Z" fill="white"/>
<path d="M901.828 145.96L901.828 145.96L852.224 135.674L852.224 135.674C848.022 134.801 843.985 135.264 840.861 136.685C837.736 138.106 835.571 140.459 834.971 143.364L834.971 143.365C834.368 146.267 835.42 149.285 837.722 151.831C840.023 154.376 843.543 156.407 847.745 157.28L901.828 145.96ZM901.828 145.96C906.033 146.83 909.553 148.86 911.854 151.405C914.155 153.95 915.208 156.97 914.608 159.876C914.005 162.781 911.838 165.132 908.713 166.553C905.589 167.973 901.551 168.436 897.349 167.566C897.349 167.566 897.349 167.566 897.349 167.566L847.745 157.28L901.828 145.96Z" stroke="white" stroke-width="1.33333"/>
</mask>
<g mask="url(#mask11_11_2)">
<path d="M836.693 131.771L917.594 148.547L912.844 171.458L831.943 154.682L836.693 131.771Z" fill="#161616" fill-opacity="0.8"/>
<path d="M832.731 154.165L837.21 132.559L916.806 149.064L912.326 170.67L832.731 154.165Z" stroke="#030303" stroke-opacity="0.8" stroke-width="1.33333"/>
</g>
</g>
</g>
<mask id="mask12_11_2" style="mask-type:luminance" maskUnits="userSpaceOnUse" x="761" y="0" width="40" height="95">
<path d="M761 0H801V94.6667H761V0Z" fill="white"/>
<path d="M761.667 0.666667H800.333V94H761.667V0.666667Z" stroke="white" stroke-width="1.33333"/>
</mask>
<g mask="url(#mask12_11_2)">
<mask id="mask13_11_2" style="mask-type:luminance" maskUnits="userSpaceOnUse" x="760" y="-1" width="42" height="97">
<path d="M768.505 95.0208L760.417 2.30725L793.427 -0.567749L801.51 92.1406L768.505 95.0208Z" fill="white"/>
<path d="M800.788 91.5344L769.111 94.2987L761.139 2.91355L792.821 0.154241L800.788 91.5344Z" stroke="white" stroke-width="1.33333"/>
</mask>
<g mask="url(#mask13_11_2)">
<mask id="mask14_11_2" style="mask-type:luminance" maskUnits="userSpaceOnUse" x="762" y="0" width="38" height="94">
<path d="M762.198 22.7239C761.214 11.4635 767.807 1.68222 776.922 0.890557C786.042 0.0936805 794.224 8.58326 795.208 19.8489L799.734 71.7395C800.714 83.0051 794.125 92.7864 785.005 93.5781C775.891 94.3749 767.708 85.8854 766.724 74.6197L762.198 22.7239Z" fill="white"/>
<path d="M762.862 22.666L762.862 22.6658C761.898 11.6339 768.357 2.30369 776.98 1.55472L776.98 1.55469C785.608 0.800763 793.58 8.86951 794.544 19.9069L799.07 71.7972C799.07 71.7973 799.07 71.7974 799.07 71.7974C800.029 82.8351 793.575 92.1649 784.948 92.9139L784.947 92.9139C776.324 93.6678 768.353 85.5993 767.388 74.5618C767.388 74.5618 767.388 74.5617 767.388 74.5617L762.862 22.666Z" stroke="white" stroke-width="1.33333"/>
</mask>
<g mask="url(#mask14_11_2)">
<path d="M768.505 95.0208L760.417 2.30725L793.427 -0.567749L801.51 92.1406L768.505 95.0208Z" fill="#2D2C2C" fill-opacity="0.8"/>
<path d="M800.788 91.5344L769.111 94.2987L761.139 2.91355L792.821 0.154241L800.788 91.5344Z" stroke="#030303" stroke-opacity="0.8" stroke-width="1.33333"/>
</g>
</g>
</g>
<mask id="mask15_11_2" style="mask-type:luminance" maskUnits="userSpaceOnUse" x="766" y="5" width="30" height="85">
<path d="M766.333 5.33337H795.667V89.3334H766.333V5.33337Z" fill="white"/>
<path d="M767 6.00004H795V88.6667H767V6.00004Z" stroke="white" stroke-width="1.33333"/>
</mask>
<g mask="url(#mask15_11_2)">
<mask id="mask16_11_2" style="mask-type:luminance" maskUnits="userSpaceOnUse" x="765" y="5" width="32" height="85">
<path d="M772.927 89.7084L765.74 7.30212L789.047 5.27087L796.234 87.6719L772.927 89.7084Z" fill="white"/>
<path d="M795.512 87.0658L773.533 88.9862L766.462 7.90839L788.441 5.9929L795.512 87.0658Z" stroke="white" stroke-width="1.33333"/>
</mask>
<g mask="url(#mask16_11_2)">
<mask id="mask17_11_2" style="mask-type:luminance" maskUnits="userSpaceOnUse" x="767" y="6" width="28" height="83">
<path d="M767.135 23.2969C766.365 14.4949 770.958 6.9011 777.396 6.3386C783.833 5.7761 789.677 12.4584 790.443 21.2657L794.844 71.7292C795.615 80.5365 791.016 88.1303 784.578 88.6928C778.141 89.2501 772.302 82.5678 771.536 73.7657L767.135 23.2969Z" fill="white"/>
<path d="M767.8 23.2388L767.8 23.239L772.201 73.7078L772.201 73.7079C772.573 77.983 774.175 81.7165 776.432 84.3004C778.69 86.8845 781.565 88.2843 784.52 88.0286L767.8 23.2388ZM767.8 23.2388C767.425 18.9637 768.357 15.0087 770.133 12.073C771.909 9.13685 774.498 7.26098 777.454 7.00274C780.409 6.7445 783.285 8.14298 785.544 10.7272C787.803 13.311 789.407 17.0458 789.779 21.3234L789.779 21.3236M767.8 23.2388L789.779 21.3236M789.779 21.3236L794.18 71.7871L794.18 71.7874M789.779 21.3236L794.18 71.7874M794.18 71.7874C794.554 76.065 793.621 80.0213 791.844 82.9576M794.18 71.7874L791.844 82.9576M791.844 82.9576C790.066 85.8943 787.476 87.7702 784.521 88.0286L791.844 82.9576Z" stroke="white" stroke-width="1.33333"/>
</mask>
<g mask="url(#mask17_11_2)">
<path d="M772.927 89.7083L765.745 7.39583L789.057 5.35938L796.234 87.6719L772.927 89.7083Z" fill="#161616" fill-opacity="0.8"/>
<path d="M795.512 87.0658L773.533 88.9862L766.467 8.00196L788.451 6.08154L795.512 87.0658Z" stroke="#030303" stroke-opacity="0.8" stroke-width="1.33333"/>
</g>
</g>
</g>
</svg>
